<?xml version="1.0" encoding="utf-8"?>
<!-- Generator: Adobe Illustrator 23.0.3, SVG Export Plug-In . SVG Version: 6.00 Build 0)  -->
<svg version="1.1" id="Laag_1" xmlns="http://www.w3.org/2000/svg" xmlns:xlink="http://www.w3.org/1999/xlink" x="0px" y="0px"
	 viewBox="0 0 16 16" style="enable-background:new 0 0 16 16;" xml:space="preserve">
<style type="text/css">
	.st0{fill-rule:evenodd;clip-rule:evenodd;fill:#000111;}
</style>
<title>twitter-icon-white</title>
<desc>Created with Sketch.</desc>
<g id="Assets">
	<g id="twitter-icon-white">
		<path id="Icon" class="st0" d="M14.3709822,5.657671C14.3709822,9.9975014,11.0695848,15,5.0318117,15
			C3.2424204,14.9990559,1.4927275,14.4862423,0,13.5252371c0.2598466,0.0283289,0.5210273,0.0435085,0.7824891,0.0454779
			c1.4849832,0.0000257,2.9247134-0.4977951,4.0772152-1.4097958c-1.4193788-0.0340424-2.6563668-0.9506674-3.0685844-2.2738628
			c0.2038774,0.0392513,0.4112309,0.0588369,0.6190535,0.0584707c0.2932837,0.0010128,0.5852418-0.0383568,0.8672087-0.1169415
			c-1.550102-0.3279982-2.6505852-1.6710958-2.6349802-3.2158918c0.4559357,0.2100053,0.9659471,0.3502665,1.4882636,0.3703146
			C0.6833518,5.9939122,0.2437042,4.0962253,1.1146967,2.5977011c1.6420689,2.0397224,4.1081047,3.2900553,6.7655621,3.430285
			C7.8236957,5.7827678,7.7952814,5.5321889,7.7955389,5.2808595C7.7718062,3.4920456,9.2415123,2.0231726,11.0782576,2
			c0.9120455,0.0004165,1.7816,0.3754895,2.3948298,1.0329835c0.7380333-0.1418073,1.4443302-0.4101782,2.0859699-0.7926037
			c-0.2401619,0.7547708-0.7536287,1.3989015-1.4449024,1.8125939C14.7660494,3.9769611,15.4020834,3.8038609,16,3.5397301
			c-0.4383287,0.6551208-0.9926043,1.2292476-1.637023,1.695652C14.3689804,5.3783107,14.3709822,5.5212393,14.3709822,5.657671z"/>
	</g>
</g>
</svg>
